<svg width="48" height="48" viewBox="0 0 48 48" fill="none" xmlns="http://www.w3.org/2000/svg">
<circle cx="24" cy="24" r="22" fill="#FF0132"/>
<path d="M19.6309 13.041C19.0913 13.1635 16.6332 13.2245 15.9736 13.4082C17.6523 15.9189 20.2905 19.2264 21.1299 20.4512C21.6095 19.7776 26.1057 16.5316 26.2256 15.5518C25.5664 15.4293 23.4695 15.1233 23.1084 15.123L22.9277 14.0205H33L32.3408 15.0615C31.9212 15.1228 30.122 15.4908 29.5225 15.6133C28.861 15.7987 22.7477 20.6961 22.3281 21.8594C22.2686 22.2264 22.3274 26.4607 22.3281 26.5127L25.8057 26.7578L25.6855 27.9219C25.205 27.8607 21.9687 27.9219 19.9307 27.9219C18.9115 27.9219 15.7942 28.0436 14.7148 27.9824L14.835 26.8809C15.4943 26.942 16.5129 26.8193 17.1123 26.6357C17.7118 26.4521 18.1913 26.207 18.1914 25.5947V21.9199C17.949 21.2433 12.8557 14.6941 11.5371 13.6533C11.1771 13.5308 8.59958 13.225 8 13.1025L8.12012 12H19.8105L19.6309 13.041ZM32.2148 25.4756L33.4795 25.8398L32.4766 27.9502L31.2334 27.5234L29.9053 27.1377L30.9297 24.9639L32.2148 25.4756ZM40 14.752L39.1094 16.1289L34.1045 24.0205L32.1768 23.3584L35.6465 13.2568L40 14.752Z" fill="white"/>
<path d="M33.5527 40V31.4102H36.3359C37.3906 31.4102 38.0781 31.4531 38.3984 31.5391C38.8906 31.668 39.3027 31.9492 39.6348 32.3828C39.9668 32.8125 40.1328 33.3691 40.1328 34.0527C40.1328 34.5801 40.0371 35.0234 39.8457 35.3828C39.6543 35.7422 39.4102 36.0254 39.1133 36.2324C38.8203 36.4355 38.5215 36.5703 38.2168 36.6367C37.8027 36.7188 37.2031 36.7598 36.418 36.7598H35.2871V40H33.5527ZM35.2871 32.8633V35.3008H36.2363C36.9199 35.3008 37.377 35.2559 37.6074 35.166C37.8379 35.0762 38.0176 34.9355 38.1465 34.7441C38.2793 34.5527 38.3457 34.3301 38.3457 34.0762C38.3457 33.7637 38.2539 33.5059 38.0703 33.3027C37.8867 33.0996 37.6543 32.9727 37.373 32.9219C37.166 32.8828 36.75 32.8633 36.125 32.8633H35.2871Z" fill="white"/>
<path d="M26.2637 40V31.4805H27.998V38.5527H32.3105V40H26.2637Z" fill="white"/>
<path d="M16.5254 35.7578C16.5254 34.8828 16.6562 34.1484 16.918 33.5547C17.1133 33.1172 17.3789 32.7246 17.7148 32.377C18.0547 32.0293 18.4258 31.7715 18.8281 31.6035C19.3633 31.377 19.9805 31.2637 20.6797 31.2637C21.9453 31.2637 22.957 31.6562 23.7148 32.4414C24.4766 33.2266 24.8574 34.3184 24.8574 35.7168C24.8574 37.1035 24.4805 38.1895 23.7266 38.9746C22.9727 39.7559 21.9648 40.1465 20.7031 40.1465C19.4258 40.1465 18.4102 39.7578 17.6562 38.9805C16.9023 38.1992 16.5254 37.125 16.5254 35.7578ZM18.3125 35.6992C18.3125 36.6719 18.5371 37.4102 18.9863 37.9141C19.4355 38.4141 20.0059 38.6641 20.6973 38.6641C21.3887 38.6641 21.9551 38.416 22.3965 37.9199C22.8418 37.4199 23.0645 36.6719 23.0645 35.6758C23.0645 34.6914 22.8477 33.957 22.4141 33.4727C21.9844 32.9883 21.4121 32.7461 20.6973 32.7461C19.9824 32.7461 19.4062 32.9922 18.9688 33.4844C18.5312 33.9727 18.3125 34.7109 18.3125 35.6992Z" fill="white"/>
<path d="M11.1289 40V36.3848L7.98242 31.4102H10.0156L12.0371 34.8086L14.0176 31.4102H16.0156L12.8574 36.3965V40H11.1289Z" fill="white"/>
</svg>